<svg xmlns="http://www.w3.org/2000/svg" viewBox="0 0 576 576" width="576" height="576">
<rect width="100%" height="100%" fill="#fff"/>
<g fill="#000">
<path d="M 309 545 L 307 547 L 307 551 L 309 553 L 314 552 L 315 550 L 314 546 Z"/><path d="M 263 545 L 261 547 L 261 551 L 263 553 L 268 552 L 269 550 L 268 546 Z"/><path d="M 224 527 L 221 527 L 218 530 L 216 538 L 216 543 L 218 545 L 222 545 L 224 543 L 226 536 L 226 529 Z"/><path d="M 307 525 L 305 527 L 305 531 L 308 533 L 312 532 L 313 527 L 311 525 Z"/><path d="M 266 514 L 264 516 L 264 521 L 270 522 L 272 517 L 271 515 Z"/><path d="M 387 503 L 386 509 L 396 529 L 401 529 L 403 524 L 394 505 L 392 503 Z"/><path d="M 192 494 L 187 494 L 182 503 L 182 505 L 173 523 L 173 527 L 175 529 L 179 529 L 185 519 L 185 517 L 194 499 L 194 496 Z"/><path d="M 230 488 L 229 493 L 231 495 L 235 495 L 237 493 L 237 489 L 234 487 Z"/><path d="M 151 482 L 147 482 L 135 498 L 134 505 L 136 507 L 139 507 L 143 503 L 152 490 L 153 484 Z"/><path d="M 337 478 L 335 483 L 338 491 L 350 539 L 353 545 L 358 545 L 359 544 L 359 536 L 357 532 L 344 480 L 342 478 Z"/><path d="M 301 475 L 301 480 L 302 481 L 307 481 L 308 480 L 308 475 L 305 473 Z"/><path d="M 205 466 L 200 466 L 195 475 L 194 479 L 197 483 L 200 483 L 205 476 L 207 471 L 207 468 Z"/><path d="M 332 458 L 330 461 L 332 465 L 337 465 L 338 464 L 338 459 L 337 458 Z"/><path d="M 367 456 L 365 457 L 364 461 L 369 472 L 373 474 L 377 471 L 377 468 L 373 461 L 373 459 L 370 456 Z"/><path d="M 275 453 L 271 453 L 268 458 L 268 471 L 267 472 L 267 484 L 266 485 L 268 491 L 273 491 L 275 488 L 276 466 L 277 465 L 277 455 Z"/><path d="M 246 448 L 240 449 L 238 454 L 236 465 L 234 469 L 235 474 L 238 476 L 242 474 L 248 453 Z"/><path d="M 327 438 L 325 440 L 325 444 L 328 446 L 332 445 L 333 440 L 331 438 Z"/><path d="M 389 431 L 387 433 L 387 437 L 389 439 L 393 439 L 395 437 L 395 433 L 393 431 Z"/><path d="M 188 432 L 186 431 L 181 432 L 175 441 L 175 446 L 180 448 L 183 446 L 189 435 Z"/><path d="M 118 427 L 111 430 L 103 438 L 100 445 L 100 450 L 99 451 L 100 458 L 103 465 L 111 473 L 119 476 L 130 476 L 137 473 L 145 465 L 149 455 L 149 448 L 146 439 L 140 432 L 130 427 Z"/><path d="M 111 413 L 107 410 L 102 412 L 73 432 L 69 436 L 69 440 L 71 442 L 74 442 L 107 420 L 111 416 Z"/><path d="M 344 409 L 342 411 L 342 415 L 344 417 L 349 417 L 350 416 L 349 409 Z"/><path d="M 318 409 L 317 410 L 317 415 L 320 424 L 323 426 L 327 425 L 328 419 L 326 415 L 326 412 L 323 409 Z"/><path d="M 296 409 L 294 411 L 294 414 L 295 415 L 297 447 L 299 450 L 303 451 L 306 447 L 304 416 L 303 411 L 301 409 Z"/><path d="M 279 409 L 274 409 L 272 411 L 271 434 L 270 435 L 271 439 L 275 441 L 279 438 L 280 433 L 281 411 Z"/><path d="M 256 409 L 251 409 L 250 410 L 248 418 L 248 424 L 251 426 L 255 425 L 257 420 L 258 412 Z"/><path d="M 231 409 L 226 410 L 214 435 L 210 446 L 208 448 L 208 453 L 210 455 L 214 455 L 216 453 L 232 419 L 234 413 Z"/><path d="M 199 407 L 198 409 L 199 413 L 204 414 L 206 412 L 206 408 L 204 406 Z"/><path d="M 405 404 L 404 405 L 404 410 L 406 412 L 411 411 L 412 406 L 410 404 Z"/><path d="M 170 404 L 165 404 L 157 412 L 157 417 L 159 419 L 164 418 L 171 411 L 172 406 Z"/><path d="M 120 400 L 120 405 L 122 407 L 127 406 L 128 402 L 126 399 Z"/><path d="M 494 383 L 494 388 L 496 390 L 524 403 L 529 401 L 529 396 L 503 383 L 500 382 L 495 382 Z"/><path d="M 423 383 L 423 387 L 433 395 L 437 395 L 439 393 L 439 389 L 432 383 L 428 381 Z"/><path d="M 91 379 L 88 377 L 81 379 L 66 387 L 49 394 L 46 397 L 46 400 L 47 402 L 51 403 L 65 396 L 67 396 L 88 386 L 91 383 Z"/><path d="M 467 369 L 466 370 L 466 375 L 471 377 L 474 372 L 472 369 Z"/><path d="M 104 369 L 102 371 L 102 375 L 105 377 L 109 376 L 110 374 L 109 370 Z"/><path d="M 122 360 L 121 361 L 121 366 L 124 368 L 128 366 L 128 361 L 127 360 Z"/><path d="M 428 356 L 430 359 L 432 359 L 439 363 L 444 363 L 445 362 L 445 357 L 443 355 L 435 351 L 430 351 Z"/><path d="M 48 351 L 46 349 L 33 351 L 30 356 L 32 359 L 43 358 L 48 356 Z"/><path d="M 517 348 L 517 352 L 521 355 L 532 357 L 536 359 L 544 359 L 545 358 L 545 353 L 542 351 L 524 346 L 520 346 Z"/><path d="M 411 342 L 409 344 L 409 349 L 416 350 L 417 349 L 417 344 L 415 342 Z"/><path d="M 159 343 L 158 348 L 160 350 L 164 350 L 166 348 L 165 343 L 164 342 Z"/><path d="M 487 341 L 487 344 L 489 346 L 494 346 L 495 345 L 495 340 L 491 338 Z"/><path d="M 88 340 L 83 338 L 63 343 L 60 346 L 60 349 L 63 352 L 67 352 L 75 349 L 82 348 L 88 345 Z"/><path d="M 111 331 L 110 336 L 112 338 L 116 338 L 118 336 L 117 331 L 115 330 Z"/><path d="M 448 330 L 448 334 L 450 336 L 456 338 L 463 339 L 467 341 L 474 341 L 476 338 L 476 336 L 471 332 L 460 330 L 456 328 L 450 328 Z"/><path d="M 166 319 L 164 317 L 160 317 L 142 322 L 140 324 L 140 328 L 142 330 L 148 330 L 152 328 L 162 326 L 166 323 Z"/><path d="M 409 318 L 409 323 L 413 326 L 428 330 L 434 330 L 436 327 L 435 323 L 431 321 L 416 318 L 412 316 Z"/><path d="M 547 307 L 545 309 L 545 313 L 548 315 L 552 314 L 553 309 L 551 307 Z"/><path d="M 23 308 L 23 313 L 25 315 L 34 315 L 40 313 L 41 311 L 39 306 L 27 306 Z"/><path d="M 55 304 L 53 309 L 54 311 L 59 312 L 61 310 L 61 306 L 59 304 Z"/><path d="M 504 305 L 504 309 L 506 311 L 511 312 L 530 313 L 533 310 L 532 306 L 527 304 L 506 303 Z"/><path d="M 96 301 L 94 303 L 95 308 L 101 308 L 102 307 L 101 301 Z"/><path d="M 444 298 L 443 299 L 443 304 L 446 306 L 449 305 L 451 302 L 449 298 Z"/><path d="M 409 296 L 409 301 L 411 303 L 427 304 L 430 301 L 430 298 L 426 295 L 411 294 Z"/><path d="M 166 297 L 163 294 L 150 295 L 146 297 L 146 302 L 148 304 L 163 303 L 166 300 Z"/><path d="M 451 273 L 449 270 L 433 270 L 432 271 L 411 272 L 409 274 L 409 279 L 411 281 L 443 279 L 448 278 L 451 275 Z"/><path d="M 135 273 L 136 278 L 143 280 L 163 281 L 166 278 L 166 275 L 164 272 L 154 272 L 153 271 L 142 271 L 140 270 Z"/><path d="M 463 271 L 464 275 L 466 276 L 475 276 L 479 275 L 481 273 L 481 269 L 479 267 L 469 267 L 465 268 Z"/><path d="M 94 270 L 96 275 L 110 276 L 112 274 L 112 270 L 110 268 L 106 267 L 96 267 Z"/><path d="M 75 266 L 74 267 L 74 272 L 75 273 L 80 273 L 81 272 L 81 267 L 80 266 Z"/><path d="M 506 265 L 504 267 L 505 272 L 508 273 L 512 271 L 511 265 Z"/><path d="M 526 263 L 525 264 L 525 269 L 528 271 L 531 270 L 533 267 L 531 263 Z"/><path d="M 43 264 L 43 269 L 46 271 L 58 272 L 61 270 L 61 265 L 58 263 L 47 262 Z"/><path d="M 547 261 L 545 263 L 545 267 L 548 269 L 552 268 L 553 263 L 551 261 Z"/><path d="M 24 261 L 23 262 L 23 267 L 28 269 L 31 264 L 29 261 Z"/><path d="M 426 251 L 424 248 L 418 248 L 410 250 L 409 251 L 409 256 L 412 258 L 420 257 L 425 255 Z"/><path d="M 150 250 L 150 254 L 155 257 L 163 258 L 166 255 L 166 251 L 162 249 L 152 248 Z"/><path d="M 445 243 L 442 242 L 438 244 L 438 249 L 439 250 L 444 250 L 446 248 Z"/><path d="M 460 237 L 458 239 L 458 244 L 459 245 L 464 245 L 465 244 L 465 239 L 463 237 Z"/><path d="M 110 239 L 110 243 L 114 246 L 124 248 L 128 244 L 127 241 L 124 239 L 113 237 Z"/><path d="M 92 232 L 90 234 L 90 238 L 92 240 L 96 240 L 98 235 L 96 232 Z"/><path d="M 515 225 L 514 224 L 507 224 L 489 229 L 487 234 L 489 237 L 495 237 L 503 234 L 510 233 L 515 230 Z"/><path d="M 51 223 L 51 228 L 54 230 L 73 235 L 78 233 L 78 229 L 75 226 L 56 221 Z"/><path d="M 436 218 L 435 217 L 429 217 L 422 220 L 420 222 L 410 226 L 409 231 L 413 234 L 421 231 L 436 223 Z"/><path d="M 539 216 L 537 221 L 539 224 L 543 224 L 545 222 L 545 218 L 543 216 Z"/><path d="M 31 217 L 30 219 L 31 223 L 36 224 L 38 222 L 38 218 L 36 216 Z"/><path d="M 130 215 L 130 218 L 132 220 L 159 233 L 163 233 L 166 230 L 166 227 L 164 225 L 162 225 L 160 223 L 147 218 L 136 212 L 133 212 Z"/><path d="M 104 199 L 102 201 L 102 205 L 105 207 L 109 206 L 110 204 L 109 200 Z"/><path d="M 162 199 L 161 202 L 163 206 L 168 206 L 169 205 L 169 200 L 166 198 Z"/><path d="M 492 192 L 490 190 L 487 190 L 464 201 L 462 201 L 456 205 L 456 209 L 458 211 L 463 211 L 465 209 L 489 199 L 492 197 Z"/><path d="M 76 186 L 74 188 L 74 192 L 77 194 L 81 193 L 82 188 L 80 186 Z"/><path d="M 529 175 L 527 173 L 523 173 L 513 178 L 512 182 L 514 185 L 519 185 L 527 181 L 529 179 Z"/><path d="M 46 175 L 47 180 L 57 185 L 61 185 L 63 183 L 63 179 L 53 173 L 48 173 Z"/><path d="M 449 169 L 448 175 L 452 177 L 455 176 L 456 171 L 454 169 Z"/><path d="M 120 170 L 120 175 L 123 178 L 146 194 L 151 194 L 153 190 L 152 188 L 141 179 L 126 169 L 121 169 Z"/><path d="M 405 164 L 404 165 L 405 171 L 406 172 L 411 171 L 412 166 L 410 164 Z"/><path d="M 165 164 L 164 165 L 164 170 L 166 172 L 169 172 L 169 170 L 172 169 L 172 166 L 170 164 Z"/><path d="M 105 157 L 103 159 L 103 163 L 105 165 L 109 165 L 111 160 L 110 158 Z"/><path d="M 378 153 L 375 157 L 377 161 L 382 161 L 383 160 L 383 155 L 381 153 Z"/><path d="M 481 152 L 480 151 L 473 152 L 465 159 L 465 163 L 467 165 L 471 165 L 481 157 Z"/><path d="M 273 146 L 271 150 L 272 164 L 275 166 L 278 166 L 281 163 L 280 148 L 278 146 Z"/><path d="M 219 139 L 217 141 L 217 146 L 225 162 L 225 164 L 227 166 L 230 166 L 233 163 L 233 159 L 225 142 L 222 139 Z"/><path d="M 500 134 L 499 135 L 499 140 L 500 141 L 505 141 L 507 139 L 507 136 L 505 134 Z"/><path d="M 70 134 L 69 135 L 69 140 L 70 141 L 75 141 L 77 139 L 77 136 L 75 134 Z"/><path d="M 361 130 L 356 131 L 342 160 L 342 164 L 345 166 L 348 166 L 351 163 L 351 161 L 363 137 L 363 132 Z"/><path d="M 244 130 L 242 135 L 245 143 L 250 165 L 255 166 L 258 163 L 258 159 L 252 136 L 249 130 Z"/><path d="M 394 128 L 393 129 L 393 134 L 395 136 L 400 135 L 401 133 L 399 128 Z"/><path d="M 334 120 L 329 120 L 326 127 L 325 134 L 317 161 L 317 164 L 319 166 L 323 166 L 327 160 L 328 153 L 333 138 L 333 134 L 336 127 L 336 122 Z"/><path d="M 170 120 L 169 121 L 169 126 L 172 128 L 176 126 L 176 121 L 175 120 Z"/><path d="M 305 115 L 300 115 L 298 119 L 295 161 L 294 162 L 295 165 L 297 166 L 300 166 L 303 163 L 304 160 L 305 134 L 307 126 L 307 118 Z"/><path d="M 407 111 L 405 113 L 405 117 L 407 119 L 412 118 L 413 116 L 412 112 Z"/><path d="M 204 112 L 203 118 L 209 128 L 215 128 L 216 122 L 211 113 L 208 111 Z"/><path d="M 269 105 L 268 110 L 270 112 L 274 112 L 276 110 L 275 105 L 273 104 Z"/><path d="M 335 100 L 333 105 L 335 108 L 339 108 L 341 106 L 341 102 L 339 100 Z"/><path d="M 451 99 L 450 100 L 445 100 L 438 103 L 430 111 L 427 118 L 427 130 L 430 137 L 436 144 L 444 148 L 455 149 L 465 145 L 473 137 L 476 130 L 476 119 L 473 111 L 465 103 L 458 100 Z"/><path d="M 123 99 L 112 102 L 104 109 L 100 117 L 99 125 L 102 136 L 109 144 L 117 148 L 127 149 L 138 145 L 145 138 L 148 132 L 149 121 L 146 112 L 139 104 L 131 100 Z"/><path d="M 303 94 L 301 96 L 301 101 L 307 102 L 308 101 L 308 95 Z"/><path d="M 234 90 L 232 92 L 233 102 L 235 107 L 240 108 L 242 106 L 241 95 L 238 90 Z"/><path d="M 191 84 L 190 89 L 192 91 L 196 91 L 198 89 L 198 85 L 196 83 Z"/><path d="M 341 80 L 338 84 L 340 88 L 345 88 L 346 87 L 346 82 L 344 80 Z"/><path d="M 436 69 L 434 71 L 434 75 L 437 77 L 441 76 L 442 71 L 440 69 Z"/><path d="M 135 69 L 134 70 L 134 76 L 156 108 L 160 111 L 165 109 L 164 103 L 145 75 L 140 69 Z"/><path d="M 226 60 L 224 62 L 224 66 L 226 68 L 230 68 L 232 63 L 231 61 Z"/><path d="M 350 50 L 347 51 L 344 60 L 344 66 L 346 68 L 351 67 L 354 58 L 354 52 Z"/><path d="M 400 46 L 397 46 L 394 49 L 382 77 L 380 79 L 380 81 L 365 112 L 364 116 L 366 119 L 371 119 L 378 106 L 378 104 L 402 54 L 403 49 Z"/><path d="M 175 46 L 173 48 L 173 53 L 181 70 L 184 73 L 187 73 L 189 71 L 188 63 L 180 47 Z"/><path d="M 353 31 L 351 34 L 353 38 L 358 38 L 359 37 L 359 32 L 356 30 Z"/><path d="M 217 31 L 216 36 L 218 38 L 222 38 L 224 36 L 224 32 L 221 30 Z"/><path d="M 313 23 L 308 23 L 306 27 L 306 38 L 305 39 L 305 48 L 303 56 L 303 69 L 302 70 L 302 79 L 303 81 L 309 81 L 311 75 L 312 55 L 313 54 L 313 45 L 314 44 L 314 35 L 315 34 L 315 25 Z"/><path d="M 262 23 L 260 28 L 261 29 L 264 68 L 266 71 L 271 71 L 273 65 L 272 64 L 272 51 L 270 43 L 269 25 L 267 23 Z"/>
</g>
</svg>